<svg xmlns="http://www.w3.org/2000/svg" width="192" height="192" viewBox="0 0 192 192" fill="none">
  <rect width="192" height="192" rx="52" fill="#f7f1ea"/>
  <rect x="18" y="18" width="156" height="156" rx="40" fill="#fffaf6" stroke="#eadbce" stroke-width="4"/>
  <path d="M63 46h66l11 22 21 11-12 28-18-9v50c0 6-4 10-10 10H71c-6 0-10-4-10-10V98l-18 9-12-28 21-11 11-22Z" fill="#8f3f2f"/>
  <path d="M78 46c2 10 10 16 18 16s16-6 18-16" fill="none" stroke="#f7d9bd" stroke-width="8" stroke-linecap="round" stroke-linejoin="round"/>
  <path d="M63 46h66l11 22 21 11-12 28-18-9v50c0 6-4 10-10 10H71c-6 0-10-4-10-10V98l-18 9-12-28 21-11 11-22Z" fill="none" stroke="#52231a" stroke-width="6" stroke-linejoin="round"/>
</svg>
