<svg xmlns="http://www.w3.org/2000/svg" viewBox="0 0 128 128">
  <rect width="128" height="128" rx="30" fill="#f7f1ea" />
  <rect x="10" y="10" width="108" height="108" rx="24" fill="#fffaf6" stroke="#eadbce" stroke-width="3" />
  <path
    d="M42 30h44l8 16 14 7-8 18-12-6v34c0 4-3 7-7 7H47c-4 0-7-3-7-7V65l-12 6-8-18 14-7 8-16Z"
    fill="#8f3f2f"
  />
  <path
    d="M52 30c2 7 7 11 12 11s10-4 12-11"
    fill="none"
    stroke="#f7d9bd"
    stroke-linecap="round"
    stroke-linejoin="round"
    stroke-width="6"
  />
  <path
    d="M42 30h44l8 16 14 7-8 18-12-6v34c0 4-3 7-7 7H47c-4 0-7-3-7-7V65l-12 6-8-18 14-7 8-16Z"
    fill="none"
    stroke="#52231a"
    stroke-linejoin="round"
    stroke-width="5"
  />
</svg>
